<svg width="15" height="17" viewBox="0 0 15 17" fill="none" xmlns="http://www.w3.org/2000/svg">
<path fill-rule="evenodd" clip-rule="evenodd" d="M13.6912 9.79046C13.7086 9.70405 13.741 9.62606 13.7865 9.55862C13.8342 9.48906 13.8949 9.42794 13.9664 9.38157C14.0357 9.3352 14.1158 9.30148 14.2025 9.28251C14.2848 9.26565 14.3715 9.26354 14.4603 9.2804C14.5491 9.29726 14.6293 9.32888 14.6986 9.37314C14.7701 9.41951 14.8329 9.47852 14.8806 9.54808C14.9282 9.61552 14.9629 9.69351 14.9824 9.77781C14.9997 9.85791 15.0019 9.94221 14.9845 10.0286C14.965 10.1298 14.9434 10.231 14.9196 10.33C14.8957 10.4312 14.8697 10.5324 14.8394 10.6314C14.8091 10.7347 14.7787 10.8338 14.7484 10.9286C14.7181 11.0192 14.6834 11.1162 14.6423 11.2216C14.6033 11.3249 14.5643 11.4218 14.5274 11.5082C14.4906 11.5946 14.4473 11.6895 14.3975 11.7928C14.3541 11.8855 14.3065 11.9782 14.2545 12.071C14.2047 12.1616 14.1548 12.2522 14.1007 12.3429L14.0985 12.3471C13.8472 12.7707 13.5569 13.1627 13.2363 13.5189C12.907 13.8857 12.5452 14.2124 12.1596 14.5011C11.7653 14.7962 11.345 15.0491 10.9031 15.262C10.4568 15.477 9.98888 15.6456 9.51228 15.7721C9.03784 15.8964 8.54824 15.9744 8.05431 16.0081C7.56687 16.0397 7.0751 16.025 6.58117 15.9639C6.09807 15.9027 5.6193 15.7952 5.14919 15.6414C4.68775 15.4896 4.23715 15.2936 3.80171 15.0533L3.75188 15.0259C3.31644 14.7793 2.91566 14.4969 2.55387 14.1871C2.18126 13.8688 1.84763 13.5168 1.55084 13.1417C1.25188 12.7602 0.991914 12.3513 0.775276 11.9213C0.556472 11.4871 0.380995 11.0361 0.255345 10.5766C0.127529 10.115 0.0473729 9.63871 0.0127109 9.15816C-0.0197848 8.68393 -0.00462017 8.20549 0.0582048 7.72493C0.12103 7.25703 0.231515 6.79123 0.389661 6.33387C0.54564 5.88493 0.747113 5.44653 0.99408 5.025L1.00708 5.00181C1.02008 4.97863 1.02441 4.9723 1.02874 4.96598C1.28221 4.54655 1.56817 4.16085 1.88446 3.81097C2.21158 3.44845 2.57337 3.12387 2.95898 2.83512C3.3511 2.54426 3.77138 2.29134 4.21332 2.08057C4.65959 1.86769 5.1232 1.69697 5.59547 1.57472C6.07207 1.45037 6.56384 1.37028 7.05994 1.33866C7.54954 1.30705 8.04564 1.3218 8.53957 1.38503C9.02484 1.44826 9.50795 1.55576 9.97805 1.71172C10.4373 1.86348 10.8879 2.0616 11.3277 2.3082L11.3342 2.31241C11.41 2.35667 11.4728 2.41147 11.5248 2.47681C11.5768 2.54426 11.6158 2.62013 11.6375 2.69812C11.6592 2.77821 11.6657 2.86252 11.6548 2.94682C11.644 3.02902 11.6158 3.11122 11.5725 3.18499C11.5292 3.26087 11.4707 3.3241 11.4035 3.37258C11.3342 3.42527 11.254 3.46321 11.1717 3.48428C11.0894 3.50536 11.0027 3.51168 10.9161 3.50114C10.8316 3.49061 10.7471 3.46321 10.6713 3.42105C10.3117 3.21872 9.93689 3.05642 9.55561 2.92996C9.16349 2.80139 8.76704 2.71076 8.36843 2.66018C7.96115 2.60749 7.55171 2.59695 7.14443 2.62224C6.73715 2.64753 6.33204 2.71498 5.93559 2.81615C5.53914 2.91942 5.15569 3.06064 4.78957 3.23558C4.42562 3.41051 4.07684 3.61917 3.74971 3.86367C3.42909 4.10183 3.1323 4.37372 2.8615 4.67512C2.5972 4.9702 2.3589 5.29267 2.15093 5.64255L2.13143 5.67627C1.93212 6.01561 1.77181 6.36759 1.64616 6.728C1.51401 7.10949 1.42086 7.4952 1.36886 7.8809C1.3147 8.27715 1.30387 8.6755 1.32987 9.07174C1.35587 9.46799 1.42519 9.86212 1.52918 10.2478C1.63533 10.6335 1.78048 11.0066 1.96028 11.3628C2.14009 11.7169 2.35457 12.0562 2.60587 12.3745C2.85067 12.6864 3.13013 12.9752 3.43775 13.2386C3.73888 13.4958 4.07034 13.7276 4.43429 13.9321C4.79391 14.1344 5.16652 14.2967 5.54781 14.4231C5.93992 14.5517 6.33637 14.6423 6.73498 14.6929C7.14226 14.7456 7.55171 14.7562 7.95899 14.7309C8.36626 14.7056 8.77138 14.6381 9.16782 14.537C9.56427 14.4337 9.94772 14.2925 10.316 14.1175C10.68 13.9426 11.0287 13.7339 11.3559 13.4894C11.6765 13.2513 11.9733 12.9815 12.2441 12.6801C12.5084 12.3871 12.7467 12.0625 12.9568 11.7106C13.0001 11.6389 13.0413 11.5651 13.0803 11.4914C13.115 11.4281 13.154 11.348 13.2016 11.2553C13.2341 11.19 13.2688 11.1099 13.3078 11.0192C13.3424 10.937 13.3749 10.8591 13.4031 10.7853C13.4313 10.7094 13.4594 10.6314 13.4876 10.5492C13.5157 10.467 13.5396 10.3848 13.5634 10.3026C13.5894 10.212 13.6111 10.1277 13.6284 10.0539C13.6544 9.96118 13.6739 9.87688 13.6912 9.79046ZM12.1726 8.75981H10.446C10.4612 8.8947 10.498 8.99376 10.5586 9.0612C10.641 9.15605 10.7514 9.20242 10.8836 9.20242C10.9681 9.20242 11.0482 9.18134 11.1241 9.1413C11.1717 9.116 11.2215 9.06963 11.2735 9.0043L12.1228 9.08017C11.9928 9.29937 11.8368 9.45745 11.6527 9.55229C11.4685 9.64714 11.2064 9.69562 10.8619 9.69562C10.5651 9.69562 10.3312 9.65557 10.1579 9.57337C9.98671 9.49117 9.8459 9.3626 9.73325 9.18345C9.6206 9.0064 9.56427 8.79774 9.56427 8.55536C9.56427 8.21392 9.67692 7.93781 9.90223 7.72493C10.1275 7.51417 10.4373 7.40668 10.8359 7.40668C11.1566 7.40668 11.4122 7.45515 11.5985 7.55C11.7848 7.64484 11.9256 7.78184 12.0231 7.961C12.1206 8.14015 12.1683 8.3741 12.1683 8.66285V8.75981H12.1726ZM11.2952 8.35724C11.2779 8.19495 11.2324 8.07903 11.1609 8.00947C11.0872 7.93992 10.9919 7.90409 10.8749 7.90409C10.7384 7.90409 10.628 7.95678 10.5456 8.06216C10.4936 8.1275 10.4612 8.22656 10.446 8.35724H11.2952ZM8.45075 7.45726H9.25881V9.52279L9.26098 9.61974C9.26098 9.75674 9.23065 9.88741 9.16999 10.0118C9.10933 10.1361 9.03134 10.2373 8.93169 10.3132C8.83204 10.389 8.70639 10.4459 8.55257 10.4797C8.39876 10.5134 8.22328 10.5324 8.02614 10.5324C7.57554 10.5324 7.26358 10.467 7.0946 10.3342C6.92562 10.2036 6.84113 10.0265 6.84113 9.80521C6.84113 9.77782 6.8433 9.73988 6.84547 9.69351L7.68169 9.78625C7.70335 9.86212 7.73585 9.91481 7.77918 9.94221C7.842 9.98437 7.92216 10.0054 8.01748 10.0054C8.14096 10.0054 8.23412 9.97383 8.29477 9.90849C8.35543 9.84315 8.38576 9.73145 8.38576 9.57126V9.24036C8.30127 9.33731 8.21678 9.40897 8.1323 9.45323C8.00015 9.52068 7.85717 9.55651 7.70335 9.55651C7.40223 9.55651 7.15959 9.42794 6.97545 9.17291C6.84547 8.99165 6.77831 8.75138 6.77831 8.45419C6.77831 8.11275 6.8628 7.8535 7.03177 7.67435C7.20075 7.4952 7.42172 7.40668 7.69685 7.40668C7.87233 7.40668 8.01531 7.43618 8.13013 7.49309C8.24278 7.55 8.34893 7.64695 8.44859 7.77973V7.45726H8.45075ZM7.64053 8.51742C7.64053 8.6755 7.67519 8.79142 7.74451 8.8694C7.81384 8.94528 7.90483 8.98322 8.01748 8.98322C8.12363 8.98322 8.21462 8.94317 8.28611 8.86519C8.35977 8.78721 8.39443 8.66707 8.39443 8.50899C8.39443 8.34881 8.35543 8.22867 8.27961 8.14436C8.20379 8.06006 8.11063 8.0179 8.00015 8.0179C7.88966 8.0179 7.80301 8.05584 7.73801 8.13382C7.67302 8.2097 7.64053 8.33827 7.64053 8.51742ZM5.58463 9.14551H4.49278L4.3433 9.64292H3.3641L4.52961 6.62262H5.57597L6.74365 9.64292H5.74061L5.58463 9.14551ZM5.38316 8.49424L5.04087 7.40878L4.70075 8.49424H5.38316ZM10.6605 5.55402C10.5738 5.58142 10.4871 5.58986 10.4048 5.58353C10.3182 5.57721 10.2337 5.55192 10.1579 5.51398C10.082 5.47604 10.0127 5.42335 9.95639 5.35801C9.90223 5.29478 9.8589 5.22312 9.83074 5.14092C9.80257 5.05661 9.79391 4.9723 9.80041 4.89221C9.80691 4.8058 9.8329 4.7236 9.8719 4.64983C9.91089 4.57606 9.96505 4.50862 10.0322 4.45592C10.0972 4.40323 10.1709 4.36108 10.2553 4.33368L12.7337 3.56227L11.618 1.47777C11.5768 1.39979 11.553 1.3197 11.5465 1.2375C11.54 1.15319 11.5487 1.06888 11.5747 0.98879C11.5985 0.908698 11.6418 0.832821 11.6982 0.767483C11.7523 0.704253 11.8195 0.649453 11.8996 0.609407C11.9798 0.569361 12.0621 0.546177 12.1466 0.539854C12.2332 0.533531 12.3199 0.541962 12.4022 0.567254C12.4845 0.592546 12.5625 0.632592 12.6297 0.687392C12.6947 0.740084 12.7488 0.805422 12.79 0.883406L14.2675 3.64236C14.274 3.65711 14.2805 3.67608 14.2891 3.68873L14.3 3.71824L14.3086 3.74564C14.3346 3.82783 14.3433 3.91003 14.3368 3.99013C14.3303 4.07654 14.3043 4.15874 14.2653 4.23251C14.2263 4.30628 14.1722 4.37372 14.105 4.42642C14.04 4.47911 13.9664 4.52126 13.8819 4.54866L10.6605 5.55402Z" fill="#FD7080"/>
</svg>
