<svg width="20" height="21" viewBox="0 0 20 21" fill="none" xmlns="http://www.w3.org/2000/svg">
<ellipse cx="10" cy="10.4134" rx="10" ry="9.67688" fill="black" fill-opacity="0.52"/>
<path fill-rule="evenodd" clip-rule="evenodd" d="M4.16675 9.50644C4.16675 7.99114 5.41989 6.76274 6.96571 6.76274C7.24958 6.76274 7.52285 6.65704 7.73023 6.46702L7.92601 6.28764C8.13994 6.09162 8.24691 5.99361 8.36352 5.91439C8.60984 5.74706 8.89229 5.63781 9.1888 5.59517C9.32917 5.57498 9.4756 5.57498 9.76844 5.57498H10.0001H10.2317C10.5246 5.57498 10.671 5.57498 10.8114 5.59517C11.1079 5.63781 11.3903 5.74706 11.6366 5.91439C11.7532 5.9936 11.8602 6.09161 12.0741 6.28762L12.2699 6.46702C12.4773 6.65704 12.7506 6.76274 13.0345 6.76274C14.5803 6.76274 15.8334 7.99114 15.8334 9.50644V11.9269C15.8334 13.4117 15.8334 14.1541 15.5267 14.716C15.2852 15.1584 14.9154 15.5208 14.4641 15.7576C13.8909 16.0583 13.1336 16.0583 11.6189 16.0583H8.38131C6.86661 16.0583 6.10926 16.0583 5.53609 15.7576C5.08475 15.5208 4.715 15.1584 4.47347 14.716C4.16675 14.1541 4.16675 13.4117 4.16675 11.9269V9.50644ZM10.0001 10.4672C9.17677 10.4672 8.50934 11.1214 8.50934 11.9285C8.50934 12.7355 9.17677 13.3898 10.0001 13.3898C10.8234 13.3898 11.4908 12.7355 11.4908 11.9285C11.4908 11.1214 10.8234 10.4672 10.0001 10.4672ZM7.60193 11.9285C7.60193 10.6302 8.67562 9.57769 10.0001 9.57769C11.3245 9.57769 12.3982 10.6302 12.3982 11.9285C12.3982 13.2268 11.3245 14.2793 10.0001 14.2793C8.67562 14.2793 7.60193 13.2268 7.60193 11.9285ZM12.5927 8.30699C12.3421 8.30699 12.139 8.50611 12.139 8.75174C12.139 8.99736 12.3421 9.19648 12.5927 9.19648H13.2408C13.4914 9.19648 13.6945 8.99736 13.6945 8.75174C13.6945 8.50611 13.4914 8.30699 13.2408 8.30699H12.5927Z" fill="white"/>
</svg>
