<svg width="14" height="15" viewBox="0 0 14 15" fill="none" xmlns="http://www.w3.org/2000/svg">
<path d="M5.46898 12.3738C5.55551 12.451 5.68669 12.3668 5.65421 12.2555L4.18451 7.21653C4.15715 7.12269 4.07419 7.05593 3.97671 7.04877C3.73886 7.0313 3.50112 7.01176 3.26353 6.99016L1.29745 6.81143C1.20566 6.80308 1.14105 6.89935 1.18451 6.98062C2.24796 8.96969 3.77933 10.8649 5.46898 12.3738Z" fill="#FDC00F"/>
<path d="M6.91085 13.439C6.92271 13.4796 6.95767 13.5102 7.00002 13.5102C7.04237 13.5102 7.07733 13.4796 7.08919 13.439L8.88813 7.27118C8.91055 7.19431 8.85064 7.11822 8.77064 7.12165C7.59077 7.17232 6.40927 7.17232 5.2294 7.12165C5.1494 7.11822 5.08949 7.19431 5.11191 7.27118L6.91085 13.439Z" fill="#FDC00F"/>
<path d="M8.34583 12.2555C8.31335 12.3668 8.44453 12.451 8.53106 12.3738C10.2207 10.8649 11.7521 8.96969 12.8155 6.98062C12.859 6.89935 12.7944 6.80308 12.7026 6.81143L10.7365 6.99016C10.4989 7.01176 10.2612 7.0313 10.0233 7.04877C9.92585 7.05593 9.84289 7.12269 9.81553 7.21653L8.34583 12.2555Z" fill="#FDC00F"/>
<path d="M12.7173 5.93149C12.8062 5.9234 12.8534 5.82255 12.8027 5.74906L10.914 3.01044C10.7507 2.77361 10.4814 2.6322 10.1937 2.6322H8.74142C8.65851 2.6322 8.60206 2.71625 8.63342 2.793L9.94985 6.01496C9.98812 6.10862 10.0824 6.16701 10.1832 6.15904C10.3413 6.14654 10.4993 6.13312 10.6573 6.11876L12.7173 5.93149Z" fill="#FDC00F"/>
<path d="M7.67964 2.77579C7.64341 2.68884 7.55845 2.6322 7.46425 2.6322H6.53579C6.44159 2.6322 6.35663 2.68884 6.3204 2.77579L4.94516 6.07636C4.91415 6.1508 4.96621 6.2335 5.04676 6.2374C6.34817 6.3004 7.65187 6.3004 8.95328 6.2374C9.03383 6.2335 9.08589 6.1508 9.05487 6.07636L7.67964 2.77579Z" fill="#FDC00F"/>
<path d="M5.36662 2.793C5.39797 2.71625 5.34152 2.6322 5.25862 2.6322H3.80632C3.51864 2.6322 3.24934 2.77361 3.08601 3.01044L1.1973 5.74906C1.14662 5.82255 1.19388 5.9234 1.28278 5.93149L3.34275 6.11876C3.50071 6.13312 3.65873 6.14654 3.8168 6.15904C3.91766 6.16701 4.01192 6.10862 4.05018 6.01496L5.36662 2.793Z" fill="#FDC00F"/>
</svg>
