<svg width="13" height="16" viewBox="0 0 13 16" fill="none" xmlns="http://www.w3.org/2000/svg">
<path d="M6.5 8.63867C6.87867 8.63867 7.24883 8.53218 7.56368 8.33266C7.87853 8.13315 8.12393 7.84957 8.26884 7.51778C8.41375 7.186 8.45166 6.82092 8.37779 6.4687C8.30392 6.11648 8.12157 5.79294 7.85381 5.53901C7.58605 5.28507 7.24491 5.11214 6.87352 5.04208C6.50212 4.97201 6.11717 5.00797 5.76732 5.1454C5.41748 5.28283 5.11846 5.51556 4.90808 5.81416C4.69771 6.11275 4.58542 6.46381 4.58542 6.82293C4.58542 7.30449 4.78713 7.76634 5.14619 8.10685C5.50524 8.44737 5.99222 8.63867 6.5 8.63867ZM5.82032 14.9121C5.90932 14.9972 6.01519 15.0647 6.13185 15.1108C6.2485 15.1569 6.37363 15.1806 6.5 15.1806C6.62637 15.1806 6.7515 15.1569 6.86815 15.1108C6.98481 15.0647 7.09068 14.9972 7.17968 14.9121L11.095 11.1898C12.0044 10.3278 12.6238 9.22941 12.8749 8.03354C13.1259 6.83767 12.9974 5.59804 12.5055 4.47144C12.0137 3.34485 11.1806 2.3819 10.1116 1.7044C9.04257 1.0269 7.78572 0.665283 6.5 0.665283C5.21428 0.665283 3.95743 1.0269 2.88844 1.7044C1.81945 2.3819 0.98633 3.34485 0.494461 4.47144C0.00259134 5.59804 -0.125932 6.83767 0.125147 8.03354C0.376226 9.22941 0.995628 10.3278 1.90501 11.1898L5.82032 14.9121ZM1.93373 6.40531C1.99913 5.75801 2.21614 5.13274 2.56891 4.57514C2.92168 4.01755 3.4013 3.54171 3.97275 3.18237C4.72346 2.7149 5.60193 2.46584 6.5 2.46584C7.39807 2.46584 8.27653 2.7149 9.02724 3.18237C9.59488 3.54048 10.0718 4.01343 10.4237 4.56722C10.7756 5.12101 10.9937 5.74186 11.0623 6.38514C11.131 7.02842 11.0485 7.67813 10.8207 8.28756C10.593 8.89698 10.2257 9.45098 9.74521 9.90969L6.5 12.9874L3.25479 9.90969C2.77377 9.45542 2.4056 8.90516 2.17708 8.29895C1.94855 7.69274 1.86542 7.04583 1.93373 6.40531Z" fill="#FD7080"/>
</svg>
