<svg width="12" height="12" viewBox="0 0 12 12" fill="none" xmlns="http://www.w3.org/2000/svg">
<path fill-rule="evenodd" clip-rule="evenodd" d="M3.3075 0.644577H8.365C10.3425 0.644577 11.6667 1.98805 11.6667 3.98633V8.59873C11.6667 10.5908 10.3425 11.9343 8.365 11.9343H3.3075C1.33 11.9343 0 10.5908 0 8.59873V3.98633C0 1.98805 1.33 0.644577 3.3075 0.644577ZM5.50092 7.97723L8.27176 5.29593C8.47009 5.104 8.47009 4.79353 8.27176 4.59596C8.07342 4.40404 7.74675 4.40404 7.54842 4.59596L5.13925 6.92729L4.11842 5.93944C3.92009 5.74751 3.59342 5.74751 3.39509 5.93944C3.19675 6.13136 3.19675 6.44183 3.39509 6.6394L4.78342 7.97723C4.88259 8.07319 5.01092 8.11835 5.13925 8.11835C5.27342 8.11835 5.40175 8.07319 5.50092 7.97723Z" fill="#AFAFAF"/>
</svg>
